<svg data-v-fde0c5aa="" xmlns="http://www.w3.org/2000/svg" viewBox="0 0 300 300" class="iconAbove"><!----><defs data-v-fde0c5aa=""><!----></defs><rect data-v-fde0c5aa="" fill="#EDF9F6" x="0" y="0" width="300px" height="300px" class="logo-background-square"></rect><defs data-v-fde0c5aa=""><!----></defs><g data-v-fde0c5aa="" id="166ab957-bd0e-4a38-83a8-b04bd38be60c" fill="#0C3D33" transform="matrix(3.36482445481971,0,0,3.36482445481971,17.64462292173801,169.59919735357676)"><path d="M3.71 13.23L3.71 13.23Q2.24 13.23 1.51 12.28L1.51 12.28L1.51 12.28Q0.77 11.33 0.71 9.87L0.71 9.87L0.70 9.45L0.71 9.03L0.71 9.03Q0.77 7.59 1.51 6.63L1.51 6.63L1.51 6.63Q2.25 5.67 3.71 5.67L3.71 5.67L3.71 5.67Q5.17 5.67 5.98 6.71L5.98 6.71L5.98 3.47L5.98 3.47Q5.98 3.33 6.07 3.24L6.07 3.24L6.07 3.24Q6.16 3.15 6.30 3.15L6.30 3.15L6.93 3.15L6.93 3.15Q7.07 3.15 7.16 3.24L7.16 3.24L7.16 3.24Q7.25 3.33 7.25 3.47L7.25 3.47L7.25 12.77L7.25 12.77Q7.25 12.91 7.16 13.00L7.16 13.00L7.16 13.00Q7.07 13.09 6.93 13.09L6.93 13.09L6.33 13.09L6.33 13.09Q6.19 13.09 6.10 13.00L6.10 13.00L6.10 13.00Q6.02 12.91 6.02 12.77L6.02 12.77L6.02 12.17L6.02 12.17Q5.22 13.23 3.71 13.23L3.71 13.23ZM3.98 12.14L3.98 12.14Q4.96 12.14 5.45 11.49L5.45 11.49L5.45 11.49Q5.94 10.84 5.98 9.94L5.98 9.94L5.98 9.94Q5.99 9.79 5.99 9.41L5.99 9.41L5.99 9.41Q5.99 9.02 5.98 8.86L5.98 8.86L5.98 8.86Q5.95 8.01 5.44 7.38L5.44 7.38L5.44 7.38Q4.93 6.76 3.98 6.76L3.98 6.76L3.98 6.76Q2.97 6.76 2.51 7.39L2.51 7.39L2.51 7.39Q2.04 8.02 2.00 9.04L2.00 9.04L1.99 9.45L1.99 9.45Q1.99 12.14 3.98 12.14L3.98 12.14ZM11.30 13.09L11.30 13.09Q11.10 13.09 11.00 13.01L11.00 13.01L11.00 13.01Q10.91 12.92 10.85 12.74L10.85 12.74L8.86 6.24L8.83 6.10L8.83 6.10Q8.83 5.98 8.92 5.89L8.92 5.89L8.92 5.89Q9.00 5.81 9.13 5.81L9.13 5.81L9.70 5.81L9.70 5.81Q9.84 5.81 9.93 5.89L9.93 5.89L9.93 5.89Q10.02 5.96 10.04 6.03L10.04 6.03L11.62 11.38L13.30 6.10L13.30 6.10Q13.33 5.99 13.43 5.90L13.43 5.90L13.43 5.90Q13.52 5.81 13.69 5.81L13.69 5.81L14.14 5.81L14.14 5.81Q14.31 5.81 14.41 5.90L14.41 5.90L14.41 5.90Q14.50 5.99 14.53 6.10L14.53 6.10L16.21 11.38L17.79 6.03L17.79 6.03Q17.81 5.96 17.90 5.89L17.90 5.89L17.90 5.89Q17.99 5.81 18.13 5.81L18.13 5.81L18.70 5.81L18.70 5.81Q18.83 5.81 18.91 5.89L18.91 5.89L18.91 5.89Q19.00 5.98 19.00 6.10L19.00 6.10L18.97 6.24L16.98 12.74L16.98 12.74Q16.93 12.92 16.83 13.01L16.83 13.01L16.83 13.01Q16.73 13.09 16.53 13.09L16.53 13.09L16.03 13.09L16.03 13.09Q15.67 13.09 15.55 12.74L15.55 12.74L13.92 7.67L12.28 12.74L12.28 12.74Q12.17 13.09 11.80 13.09L11.80 13.09L11.30 13.09ZM23.52 13.23L23.52 13.23Q21.98 13.23 21.15 12.36L21.15 12.36L21.15 12.36Q20.31 11.49 20.26 10.05L20.26 10.05L20.24 9.45L20.26 8.85L20.26 8.85Q20.31 7.41 21.16 6.54L21.16 6.54L21.16 6.54Q22.01 5.67 23.52 5.67L23.52 5.67L23.52 5.67Q25.03 5.67 25.88 6.54L25.88 6.54L25.88 6.54Q26.73 7.41 26.78 8.85L26.78 8.85L26.78 8.85Q26.81 9.16 26.81 9.45L26.81 9.45L26.81 9.45Q26.81 9.74 26.78 10.05L26.78 10.05L26.78 10.05Q26.73 11.49 25.89 12.36L25.89 12.36L25.89 12.36Q25.06 13.23 23.52 13.23L23.52 13.23ZM23.52 12.18L23.52 12.18Q24.42 12.18 24.94 11.61L24.94 11.61L24.94 11.61Q25.47 11.05 25.51 9.98L25.51 9.98L25.51 9.98Q25.52 9.84 25.52 9.45L25.52 9.45L25.52 9.45Q25.52 9.06 25.51 8.92L25.51 8.92L25.51 8.92Q25.47 7.85 24.94 7.29L24.94 7.29L24.94 7.29Q24.42 6.72 23.52 6.72L23.52 6.72L23.52 6.72Q22.62 6.72 22.10 7.29L22.10 7.29L22.10 7.29Q21.57 7.85 21.53 8.92L21.53 8.92L21.52 9.45L21.53 9.98L21.53 9.98Q21.57 11.05 22.10 11.61L22.10 11.61L22.10 11.61Q22.62 12.18 23.52 12.18L23.52 12.18ZM28.90 13.09L28.90 13.09Q28.76 13.09 28.66 13.00L28.66 13.00L28.66 13.00Q28.57 12.91 28.57 12.77L28.57 12.77L28.57 6.15L28.57 6.15Q28.57 6.01 28.66 5.91L28.66 5.91L28.66 5.91Q28.76 5.81 28.90 5.81L28.90 5.81L29.48 5.81L29.48 5.81Q29.64 5.81 29.73 5.90L29.73 5.90L29.73 5.90Q29.82 5.99 29.82 6.15L29.82 6.15L29.82 6.76L29.82 6.76Q30.39 5.81 31.77 5.81L31.77 5.81L32.31 5.81L32.31 5.81Q32.47 5.81 32.55 5.89L32.55 5.89L32.55 5.89Q32.63 5.98 32.63 6.13L32.63 6.13L32.63 6.65L32.63 6.65Q32.63 6.79 32.55 6.88L32.55 6.88L32.55 6.88Q32.47 6.97 32.31 6.97L32.31 6.97L31.51 6.97L31.51 6.97Q30.74 6.97 30.30 7.42L30.30 7.42L30.30 7.42Q29.86 7.87 29.86 8.64L29.86 8.64L29.86 12.77L29.86 12.77Q29.86 12.91 29.76 13.00L29.76 13.00L29.76 13.00Q29.67 13.09 29.53 13.09L29.53 13.09L28.90 13.09ZM34.17 13.09L34.17 13.09Q34.03 13.09 33.94 13.00L33.94 13.00L33.94 13.00Q33.85 12.91 33.85 12.77L33.85 12.77L33.85 3.47L33.85 3.47Q33.85 3.32 33.94 3.23L33.94 3.23L33.94 3.23Q34.03 3.15 34.17 3.15L34.17 3.15L34.78 3.15L34.78 3.15Q34.92 3.15 35.01 3.24L35.01 3.24L35.01 3.24Q35.10 3.33 35.10 3.47L35.10 3.47L35.10 8.36L37.90 6.05L37.90 6.05Q38.11 5.89 38.19 5.85L38.19 5.85L38.19 5.85Q38.28 5.81 38.46 5.81L38.46 5.81L39.16 5.81L39.16 5.81Q39.28 5.81 39.36 5.89L39.36 5.89L39.36 5.89Q39.44 5.96 39.44 6.10L39.44 6.10L39.44 6.10Q39.44 6.23 39.28 6.37L39.28 6.37L36.01 9.06L39.63 12.53L39.63 12.53Q39.79 12.68 39.79 12.80L39.79 12.80L39.79 12.80Q39.79 12.92 39.71 13.01L39.71 13.01L39.71 13.01Q39.63 13.09 39.51 13.09L39.51 13.09L38.82 13.09L38.82 13.09Q38.61 13.09 38.52 13.05L38.52 13.05L38.52 13.05Q38.43 13.01 38.26 12.85L38.26 12.85L35.10 9.86L35.10 12.77L35.10 12.77Q35.10 12.91 35.01 13.00L35.01 13.00L35.01 13.00Q34.92 13.09 34.78 13.09L34.78 13.09L34.17 13.09ZM43.51 13.23L43.51 13.23Q42.55 13.23 41.88 12.91L41.88 12.91L41.88 12.91Q41.22 12.60 40.89 12.19L40.89 12.19L40.89 12.19Q40.57 11.79 40.57 11.52L40.57 11.52L40.57 11.52Q40.57 11.38 40.67 11.30L40.67 11.30L40.67 11.30Q40.77 11.23 40.88 11.23L40.88 11.23L41.47 11.23L41.47 11.23Q41.55 11.23 41.60 11.26L41.60 11.26L41.60 11.26Q41.65 11.28 41.73 11.38L41.73 11.38L41.73 11.38Q42.06 11.77 42.46 12.00L42.46 12.00L42.46 12.00Q42.85 12.22 43.53 12.22L43.53 12.22L43.53 12.22Q44.28 12.22 44.74 11.94L44.74 11.94L44.74 11.94Q45.19 11.66 45.19 11.13L45.19 11.13L45.19 11.13Q45.19 10.78 45.00 10.57L45.00 10.57L45.00 10.57Q44.80 10.36 44.35 10.19L44.35 10.19L44.35 10.19Q43.89 10.02 42.99 9.83L42.99 9.83L42.99 9.83Q41.78 9.56 41.27 9.06L41.27 9.06L41.27 9.06Q40.77 8.55 40.77 7.76L40.77 7.76L40.77 7.76Q40.77 7.24 41.08 6.75L41.08 6.75L41.08 6.75Q41.38 6.27 41.99 5.97L41.99 5.97L41.99 5.97Q42.60 5.67 43.44 5.67L43.44 5.67L43.44 5.67Q44.32 5.67 44.95 5.96L44.95 5.96L44.95 5.96Q45.57 6.26 45.89 6.65L45.89 6.65L45.89 6.65Q46.20 7.04 46.20 7.31L46.20 7.31L46.20 7.31Q46.20 7.43 46.11 7.52L46.11 7.52L46.11 7.52Q46.02 7.60 45.89 7.60L45.89 7.60L45.36 7.60L45.36 7.60Q45.16 7.60 45.08 7.45L45.08 7.45L45.08 7.45Q44.84 7.18 44.68 7.04L44.68 7.04L44.68 7.04Q44.52 6.89 44.21 6.78L44.21 6.78L44.21 6.78Q43.90 6.68 43.44 6.68L43.44 6.68L43.44 6.68Q42.76 6.68 42.39 6.96L42.39 6.96L42.39 6.96Q42.03 7.25 42.03 7.73L42.03 7.73L42.03 7.73Q42.03 8.02 42.18 8.22L42.18 8.22L42.18 8.22Q42.34 8.43 42.77 8.60L42.77 8.60L42.77 8.60Q43.20 8.78 44.06 8.96L44.06 8.96L44.06 8.96Q45.39 9.24 45.94 9.76L45.94 9.76L45.94 9.76Q46.49 10.28 46.49 11.09L46.49 11.09L46.49 11.09Q46.49 11.69 46.15 12.18L46.15 12.18L46.15 12.18Q45.81 12.67 45.13 12.95L45.13 12.95L45.13 12.95Q44.45 13.23 43.51 13.23L43.51 13.23ZM48.47 15.75L48.47 15.75Q48.33 15.75 48.24 15.67L48.24 15.67L48.24 15.67Q48.15 15.58 48.15 15.43L48.15 15.43L48.15 6.13L48.15 6.13Q48.15 5.98 48.24 5.89L48.24 5.89L48.24 5.89Q48.33 5.81 48.47 5.81L48.47 5.81L49.06 5.81L49.06 5.81Q49.21 5.81 49.29 5.89L49.29 5.89L49.29 5.89Q49.38 5.98 49.38 6.13L49.38 6.13L49.38 6.75L49.38 6.75Q50.19 5.67 51.69 5.67L51.69 5.67L51.69 5.67Q53.16 5.67 53.89 6.60L53.89 6.60L53.89 6.60Q54.63 7.53 54.67 8.97L54.67 8.97L54.67 8.97Q54.68 9.13 54.68 9.45L54.68 9.45L54.68 9.45Q54.68 9.77 54.67 9.93L54.67 9.93L54.67 9.93Q54.63 11.35 53.89 12.29L53.89 12.29L53.89 12.29Q53.16 13.23 51.69 13.23L51.69 13.23L51.69 13.23Q50.19 13.23 49.42 12.17L49.42 12.17L49.42 15.43L49.42 15.43Q49.42 15.57 49.33 15.66L49.33 15.66L49.33 15.66Q49.24 15.75 49.10 15.75L49.10 15.75L48.47 15.75ZM51.42 12.14L51.42 12.14Q52.43 12.14 52.89 11.51L52.89 11.51L52.89 11.51Q53.35 10.88 53.40 9.86L53.40 9.86L53.40 9.86Q53.41 9.72 53.41 9.45L53.41 9.45L53.41 9.45Q53.41 6.76 51.42 6.76L51.42 6.76L51.42 6.76Q50.44 6.76 49.95 7.41L49.95 7.41L49.95 7.41Q49.45 8.06 49.42 8.95L49.42 8.95L49.42 8.95Q49.41 9.10 49.41 9.49L49.41 9.49L49.41 9.49Q49.41 9.88 49.42 10.04L49.42 10.04L49.42 10.04Q49.45 10.89 49.96 11.52L49.96 11.52L49.96 11.52Q50.47 12.14 51.42 12.14L51.42 12.14ZM58.46 13.23L58.46 13.23Q57.78 13.23 57.20 12.95L57.20 12.95L57.20 12.95Q56.62 12.67 56.27 12.19L56.27 12.19L56.27 12.19Q55.93 11.70 55.93 11.12L55.93 11.12L55.93 11.12Q55.93 10.19 56.69 9.60L56.69 9.60L56.69 9.60Q57.44 9.02 58.74 8.82L58.74 8.82L60.84 8.53L60.84 8.12L60.84 8.12Q60.84 6.68 59.18 6.68L59.18 6.68L59.18 6.68Q58.53 6.68 58.14 6.94L58.14 6.94L58.14 6.94Q57.75 7.20 57.57 7.55L57.57 7.55L57.57 7.55Q57.51 7.69 57.45 7.73L57.45 7.73L57.45 7.73Q57.39 7.78 57.27 7.78L57.27 7.78L56.73 7.78L56.73 7.78Q56.60 7.78 56.51 7.69L56.51 7.69L56.51 7.69Q56.42 7.60 56.42 7.48L56.42 7.48L56.42 7.48Q56.42 7.15 56.72 6.73L56.72 6.73L56.72 6.73Q57.02 6.30 57.65 5.98L57.65 5.98L57.65 5.98Q58.28 5.67 59.19 5.67L59.19 5.67L59.19 5.67Q60.76 5.67 61.44 6.40L61.44 6.40L61.44 6.40Q62.12 7.13 62.12 8.22L62.12 8.22L62.12 12.77L62.12 12.77Q62.12 12.91 62.03 13.00L62.03 13.00L62.03 13.00Q61.94 13.09 61.80 13.09L61.80 13.09L61.18 13.09L61.18 13.09Q61.04 13.09 60.96 13.00L60.96 13.00L60.96 13.00Q60.87 12.91 60.87 12.77L60.87 12.77L60.87 12.15L60.87 12.15Q60.56 12.61 59.98 12.92L59.98 12.92L59.98 12.92Q59.39 13.23 58.46 13.23L58.46 13.23ZM58.74 12.21L58.74 12.21Q59.67 12.21 60.26 11.61L60.26 11.61L60.26 11.61Q60.84 11.00 60.84 9.86L60.84 9.86L60.84 9.46L59.21 9.70L59.21 9.70Q58.20 9.84 57.68 10.18L57.68 10.18L57.68 10.18Q57.16 10.51 57.16 11.02L57.16 11.02L57.16 11.02Q57.16 11.59 57.63 11.90L57.63 11.90L57.63 11.90Q58.10 12.21 58.74 12.21L58.74 12.21ZM67.06 13.23L67.06 13.23Q65.56 13.23 64.72 12.38L64.72 12.38L64.72 12.38Q63.88 11.54 63.84 10.01L63.84 10.01L63.83 9.45L63.84 8.89L63.84 8.89Q63.88 7.36 64.72 6.52L64.72 6.52L64.72 6.52Q65.56 5.67 67.06 5.67L67.06 5.67L67.06 5.67Q68.07 5.67 68.76 6.03L68.76 6.03L68.76 6.03Q69.45 6.38 69.80 6.92L69.80 6.92L69.80 6.92Q70.14 7.45 70.17 7.98L70.17 7.98L70.17 7.98Q70.18 8.11 70.08 8.20L70.08 8.20L70.08 8.20Q69.97 8.30 69.85 8.30L69.85 8.30L69.23 8.30L69.23 8.30Q69.09 8.30 69.02 8.24L69.02 8.24L69.02 8.24Q68.95 8.18 68.88 8.01L68.88 8.01L68.88 8.01Q68.63 7.32 68.19 7.04L68.19 7.04L68.19 7.04Q67.75 6.75 67.07 6.75L67.07 6.75L67.07 6.75Q66.19 6.75 65.67 7.29L65.67 7.29L65.67 7.29Q65.16 7.84 65.11 8.96L65.11 8.96L65.10 9.45L65.11 9.94L65.11 9.94Q65.16 11.06 65.67 11.61L65.67 11.61L65.67 11.61Q66.19 12.15 67.07 12.15L67.07 12.15L67.07 12.15Q67.76 12.15 68.19 11.87L68.19 11.87L68.19 11.87Q68.63 11.58 68.88 10.89L68.88 10.89L68.88 10.89Q68.95 10.72 69.02 10.66L69.02 10.66L69.02 10.66Q69.09 10.60 69.23 10.60L69.23 10.60L69.85 10.60L69.85 10.60Q69.97 10.60 70.08 10.70L70.08 10.70L70.08 10.70Q70.18 10.79 70.17 10.92L70.17 10.92L70.17 10.92Q70.14 11.44 69.80 11.97L69.80 11.97L69.80 11.97Q69.45 12.50 68.76 12.87L68.76 12.87L68.76 12.87Q68.07 13.23 67.06 13.23L67.06 13.23ZM74.73 13.23L74.73 13.23Q73.30 13.23 72.45 12.34L72.45 12.34L72.45 12.34Q71.60 11.45 71.51 9.91L71.51 9.91L71.50 9.44L71.51 8.97L71.51 8.97Q71.60 7.46 72.45 6.57L72.45 6.57L72.45 6.57Q73.30 5.67 74.73 5.67L74.73 5.67L74.73 5.67Q76.27 5.67 77.12 6.65L77.12 6.65L77.12 6.65Q77.97 7.63 77.97 9.31L77.97 9.31L77.97 9.56L77.97 9.56Q77.97 9.70 77.88 9.79L77.88 9.79L77.88 9.79Q77.78 9.88 77.64 9.88L77.64 9.88L72.79 9.88L72.79 10.01L72.79 10.01Q72.83 10.92 73.35 11.56L73.35 11.56L73.35 11.56Q73.86 12.21 74.72 12.21L74.72 12.21L74.72 12.21Q75.38 12.21 75.79 11.95L75.79 11.95L75.79 11.95Q76.20 11.69 76.41 11.41L76.41 11.41L76.41 11.41Q76.54 11.24 76.61 11.21L76.61 11.21L76.61 11.21Q76.68 11.17 76.85 11.17L76.85 11.17L77.46 11.17L77.46 11.17Q77.59 11.17 77.68 11.24L77.68 11.24L77.68 11.24Q77.77 11.31 77.77 11.42L77.77 11.42L77.77 11.42Q77.77 11.73 77.39 12.17L77.39 12.17L77.39 12.17Q77.01 12.60 76.32 12.91L76.32 12.91L76.32 12.91Q75.63 13.23 74.73 13.23L74.73 13.23ZM72.79 8.93L76.69 8.93L76.69 8.89L76.69 8.89Q76.69 7.91 76.16 7.29L76.16 7.29L76.16 7.29Q75.63 6.68 74.73 6.68L74.73 6.68L74.73 6.68Q73.82 6.68 73.30 7.29L73.30 7.29L73.30 7.29Q72.79 7.91 72.79 8.89L72.79 8.89L72.79 8.93Z"></path></g><defs data-v-fde0c5aa=""><linearGradient data-v-fde0c5aa="" gradientTransform="rotate(25)" id="eb30ba58-1c32-42f7-8dbe-b9822c71cb32" x1="0%" y1="0%" x2="100%" y2="0%"><stop data-v-fde0c5aa="" offset="0%" stop-color="#288642" stop-opacity="1"></stop><stop data-v-fde0c5aa="" offset="100%" stop-color="#27FDFD" stop-opacity="1"></stop></linearGradient></defs><g data-v-fde0c5aa="" id="a03f911d-f459-476e-b4f7-5a44599eace7" stroke="none" fill="url(#eb30ba58-1c32-42f7-8dbe-b9822c71cb32)" transform="matrix(2.649799338394188,0,0,2.649799338394188,107.60321058569299,77.4048158785395)"><path d="M9.663 12.988L12.675 16l-6.338 6.337 3.326 3.326L16 19.325l3.012 3.012-6.337 6.338L16 32l6.337-6.337 3.326-3.326L32 16l-3.325-3.325-6.338 6.337L19.325 16l6.338-6.337-3.326-3.326L16 12.675l-3.012-3.012 6.337-6.338L16 0 9.663 6.337 6.337 9.663 0 16l3.325 3.325z"></path></g><!----></svg>